# xmcd
#
# Track frame offsets: 
#        150
#        13721
#        27306
#        42835
#        61841
#        78257
#        90658
#        106622
#        121200
#        136591
#        153307
#
# Disc length: 2284 seconds
#
# Revision: 0
# Processed by: cddbd v1.5.2PL0 Copyright (c) Steve Scherf et al.
# Submitted via: ExactAudioCopy v0.95b4
#
DISCID=7408ea0b
DTITLE=Bobbi Smith - I Can't Help Myself
DYEAR=1996
DGENRE=Country
TTITLE0=Up
TTITLE1=I Can't Help Myself
TTITLE2=Sorry
TTITLE3=You Take the Lead
TTITLE4=Eternal
TTITLE5=What Some Guys Won't Do
TTITLE6=One Heart
TTITLE7=Close My Eyes
TTITLE8=Why Can't This Be Love
TTITLE9=Not Very Good At Goodbye
TTITLE10=Sweetwater
EXTD=
EXTT0=
EXTT1=
EXTT2=
EXTT3=
EXTT4=
EXTT5=
EXTT6=
EXTT7=
EXTT8=
EXTT9=
EXTT10=
PLAYORDER=
